<!-- icon666.com - MILLIONS OF FREE VECTOR ICONS --><svg id="icons" viewBox="0 0 64 64" xmlns="http://www.w3.org/2000/svg"><path d="m22 21.25185a7.79856 7.79856 0 0 1 4-6.75q2.64 6.15 5.28 12.32c-.78-.66-1.59-1.28-2.42-1.87a32.411 32.411 0 0 0 -6.24-3.45c-.21-.09-.41-.17-.62-.25z" fill="#9fcaff"></path><path d="m62.08008 44.56183-1.11011.08-23.83 1.64c-.45.03-.89.05-1.34.05-.54 0-1.08-.02-1.62-.07a19.57666 19.57666 0 0 1 -3.22-.57c-.65-.17-1.3-.33-1.96-.48a65.44667 65.44667 0 0 0 -13.3-1.69c-.53-.01-1.07-.02-1.6-.02h-12.21997a.87283.87283 0 0 0 -.88.87v7.13h37.82a17.01731 17.01731 0 0 0 2.36-.16c.61-.08 1.21-.16 1.82-.24 3.33-.43 6.67-.86 10-1.3 3.08-.4 6.16992-.8 9.25-1.2a.864.864 0 0 0 .75-.86v-2.32a.86212.86212 0 0 0 -.91992-.86z" fill="#fff"></path><path d="m54.15 37.50183h-.56a24.97959 24.97959 0 0 1 -10.65-2.38l-6.86-3.23c-.21-.28-.43006-.55-.66-.82a28.28638 28.28638 0 0 0 -2.88-3.11c-.41-.4-.83-.77-1.26-1.14-.78-.66-1.59-1.28-2.42-1.87a32.41016 32.41016 0 0 0 -6.24-3.45c-.21-.09-.41-.17-.62-.25a32.48582 32.48582 0 0 0 -9.64-2.21l-3.36-.25-4-.29-1.58 13.19-1.42 11.81h12.1c.53 0 1.07.01 1.6.02a65.44667 65.44667 0 0 1 13.3 1.69c.66.15 1.31.31 1.96.48a19.57666 19.57666 0 0 0 3.22.57c.54.05 1.08.07 1.62.07.45 0 .89-.02 1.34-.05l23.83-1.64v-.85a6.84433 6.84433 0 0 0 -6.82-6.29z" fill="#d7e9ff"></path><g fill="#356fff"><path d="m.999 52.502a1.00026 1.00026 0 0 1 -1-1.001l.00391-7.12989a1.87675 1.87675 0 0 1 1.87309-1.87111l12.22851-.001a66.89932 66.89932 0 0 1 17.11426 2.22754 17.9049 17.9049 0 0 0 5.85059.55762l24.9414-1.7207a1.86353 1.86353 0 0 1 1.99024 1.85939v2.31934a1.86691 1.86691 0 0 1 -1.62207 1.84765l-21.07325 2.7461a19.20024 19.20024 0 0 1 -2.48925.16211zm1.00393-8.002-.00293 6.002 36.81641-.0039a17.29574 17.29574 0 0 0 2.23047-.14453l20.95412-2.7315v-2.05273l-24.79495 1.71093a20.0234 20.0234 0 0 1 -6.499-.62011 64.93739 64.93739 0 0 0 -16.60256-2.16116z"></path><path d="m43.001 52.1084a.99942.99942 0 0 1 -1-1v-2.61035a1 1 0 0 1 2 0v2.61035a.99943.99943 0 0 1 -1 1z"></path><path d="m53.001 50.80859a.99942.99942 0 0 1 -1-1v-2.31054a1 1 0 0 1 2 0v2.31054a.99942.99942 0 0 1 -1 1z"></path><path d="m60.9707 44.78809a1.00067 1.00067 0 0 1 -.99609-.9209 5.86719 5.86719 0 0 0 -5.82324-5.36914h-.55957a26.14128 26.14128 0 0 1 -11.07715-2.47559l-6.85938-3.23046a.99952.99952 0 1 1 .85157-1.80859l6.86035 3.23047a24.13168 24.13168 0 0 0 10.22461 2.28417h.55957a7.87814 7.87814 0 0 1 7.81738 7.21095 1.00061 1.00061 0 0 1 -.918 1.07618c-.02634.00193-.05368.00291-.08005.00291z"></path><path d="m10.001 52.48242a.99942.99942 0 0 1 -1-1v-2.98437a1 1 0 0 1 2 0v2.98437a.99942.99942 0 0 1 -1 1z"></path><path d="m20.001 52.502a.99942.99942 0 0 1 -1-1v-3.0039a1 1 0 0 1 2 0v3.0039a.99942.99942 0 0 1 -1 1z"></path><path d="m24.001 52.48242a.99942.99942 0 0 1 -1-1v-2.98437a1 1 0 0 1 2 0v2.98437a.99942.99942 0 0 1 -1 1z"></path><path d="m30.001 52.48242a.99942.99942 0 0 1 -1-1v-2.98437a1 1 0 0 1 2 0v2.98437a.99942.99942 0 0 1 -1 1z"></path><path d="m34.001 52.502a.99942.99942 0 0 1 -1-1v-3.002a1 1 0 0 1 2 0v3.002a.99942.99942 0 0 1 -1 1z"></path><path d="m29.001 46.20605a1 1 0 0 1 -.66016-1.751 38.40192 38.40192 0 0 1 10.31248-6.49505 31.12124 31.12124 0 0 0 -3.36426-5.46191 31.61364 31.61364 0 0 0 -4.65625-4.91895c-.72363-.61133-1.49316-1.20605-2.35058-1.81543a31.392 31.392 0 0 0 -6.0459-3.34277 31.77224 31.77224 0 0 0 -9.9502-2.38574l-6.40625-.47071-2.88574 24.0527a1.00029 1.00029 0 0 1 -1.98633-.23828l3-25a1.00305 1.00305 0 0 1 1.06543-.87791l7.36231.54a33.76438 33.76438 0 0 1 10.57324 2.53515 33.39919 33.39919 0 0 1 6.42969 3.55567c.90625.64355 1.71875 1.27246 2.48828 1.92285a33.55143 33.55143 0 0 1 4.95024 5.22853 33.26817 33.26817 0 0 1 4.03706 6.7988.99848.99848 0 0 1 -.54687 1.33692 36.36856 36.36856 0 0 0 -10.70606 6.53808.99434.99434 0 0 1 -.66013.24905z"></path><path d="m9.002 19.794a.9772.9772 0 0 1 -.1582-.0127.99914.99914 0 0 1 -.83008-1.14453l.57715-3.63184a1.28334 1.28334 0 0 0 -.2959-1.0498 1.30294 1.30294 0 0 0 -2.29394.8457v3.69727a1 1 0 0 1 -2 0v-3.69732a3.30272 3.30272 0 1 1 6.56445.51856l-.57715 3.63183a.9996.9996 0 0 1 -.98633.84283z"></path><path d="m31.28125 27.81836a.99821.99821 0 0 1 -.91895-.60645l-4.80566-11.21091a6.807 6.807 0 0 0 -2.55564 5.25486.99969.99969 0 0 1 -1 .98926h-.01075a1.0001 1.0001 0 0 1 -.98925-1.01074 8.81679 8.81679 0 0 1 4.50976-7.6084 1.00016 1.00016 0 0 1 1.40918.47754l5.28026 12.32128a.99944.99944 0 0 1 -.5254 1.3125.9831.9831 0 0 1 -.39355.08106z"></path><path d="m30.00781 31.5a1 1 0 0 1 -.708-1.70605l3.00977-3.02051a.9999.9999 0 1 1 1.416 1.41211l-3.00977 3.0205a.99832.99832 0 0 1 -.708.29395z"></path><path d="m33.01758 34.47852a1 1 0 0 1 -.707-1.707l2.9834-2.98437a.99989.99989 0 0 1 1.41402 1.41402l-2.9834 2.98438a.99676.99676 0 0 1 -.70702.29297z"></path><path d="m15.7002 44.49805a1.00118 1.00118 0 0 1 -.9795-.80176 14.07037 14.07037 0 0 0 -11.46093-11.02149.99956.99956 0 1 1 .32423-1.97265 16.08116 16.08116 0 0 1 13.09764 12.59765.9989.9989 0 0 1 -.98144 1.19825z"></path><path d="m60.97168 45.6377a.99943.99943 0 0 1 -1-1v-.84961a1 1 0 0 1 2 0v.84961a.99943.99943 0 0 1 -1 1z"></path></g></svg>