<!-- icon666.com - MILLIONS OF FREE VECTOR ICONS --><svg id="Layer_1" enable-background="new 0 0 512 512" viewBox="0 0 512 512" xmlns="http://www.w3.org/2000/svg"><g clip-rule="evenodd" fill-rule="evenodd"><g><path d="m264.785 75.993 171.107 98.789c5.587 3.226 8.785 8.764 8.785 15.216v197.578c0 6.452-3.198 11.99-8.784 15.216l-171.108 98.79c-5.587 3.226-11.983 3.225-17.57 0l-171.107-98.79c-5.587-3.225-8.785-8.764-8.785-15.216v-197.578c0-6.452 3.198-11.99 8.785-15.216l171.108-98.789c5.586-3.226 11.982-3.226 17.569 0z" fill="#f2d1a5"></path><path d="m350.339 125.387 85.553 49.394c2.793 1.613 4.99 3.804 6.488 6.398l-186.38 107.608-186.38-107.607c1.498-2.594 3.694-4.785 6.487-6.398l85.554-49.394 85.556-49.396c5.581-3.221 11.969-3.224 17.551-.008z" fill="#c48958"></path><path d="m435.907 174.791c2.786 1.612 4.977 3.8 6.473 6.39l-186.38 107.606v-215.213c2.989 0 5.979.803 8.768 2.409zm-171.139-98.808 85.571 49.405 85.553 49.394-85.553-49.394z" fill="#b5733e"></path><path d="m442.38 181.18c1.498 2.594 2.297 5.592 2.297 8.818v197.578c0 6.451-3.198 11.99-8.784 15.216l-42.148 24.334-129.003 74.48c-2.782 1.596-5.761 2.394-8.742 2.394v-215.213z" fill="#e3a76f"></path><path d="m442.38 181.18c1.498 2.594 2.297 5.592 2.297 8.818v89.742l-147.983 85.439c-2.297 1.326-4.798 1.56-7.3.682s-4.31-2.623-5.274-5.093l-28.12-71.981z" fill="#c48958"></path><path d="m256 288.787 186.38-107.607 27.447 47.54c2.419 4.19.974 9.581-3.216 12l-171.164 98.822c-4.19 2.419-9.581.975-12-3.216z" fill="#e3a76f"></path><path d="m69.62 181.18c-1.498 2.594-2.297 5.592-2.297 8.818v89.742l147.983 85.439c2.297 1.326 4.798 1.56 7.3.682s4.309-2.623 5.274-5.093l28.12-71.981z" fill="#c48958"></path><path d="m256 288.787-186.38-107.607-27.447 47.54c-2.419 4.19-.975 9.581 3.216 12l171.164 98.822c4.19 2.419 9.581.975 12-3.216z" fill="#e3a76f"></path></g><g><circle cx="256" cy="117.268" fill="#eceff1" r="109.268"></circle><path d="m256 8c60.347 0 109.268 48.921 109.268 109.268s-48.921 109.268-109.268 109.268c-2.522 0-5.021-.093-7.5-.261 56.848-3.855 101.768-51.182 101.768-109.007s-44.921-105.152-101.768-109.007c2.479-.168 4.978-.261 7.5-.261z" fill="#d1d1d6"></path><path d="m237.02 83.027c0 7.166-5.81 12.976-12.976 12.976s-12.976-5.809-12.976-12.976c0-12.406 5.03-23.639 13.161-31.771 8.132-8.131 19.365-13.161 31.771-13.161s23.639 5.03 31.771 13.161c8.132 8.132 13.161 19.365 13.161 31.771 0 8.829-2.562 17.079-6.985 24.047-4.542 7.155-11.075 12.942-18.831 16.591-1.965.925-3.516 2.283-4.558 3.924-1.024 1.614-1.583 3.592-1.583 5.785v6.407c0 7.166-5.81 12.976-12.976 12.976s-12.976-5.81-12.976-12.976v-6.407c0-7.192 1.991-13.925 5.639-19.673 3.631-5.722 8.877-10.381 15.404-13.452 3.271-1.54 6.042-4.003 7.984-7.063 1.855-2.922 2.93-6.407 2.93-10.159 0-5.243-2.124-9.988-5.558-13.422s-8.179-5.559-13.422-5.559c-5.242 0-9.988 2.125-13.422 5.559s-5.558 8.179-5.558 13.422zm18.98 87.521c7.166 0 12.976 5.809 12.976 12.976 0 7.166-5.81 12.976-12.976 12.976s-12.976-5.81-12.976-12.976c0-7.167 5.81-12.976 12.976-12.976z" fill="#fe646f"></path><path d="m237.02 83.027c0 7.166-5.81 12.976-12.976 12.976-1.419 0-2.785-.229-4.063-.65 5.176-1.705 8.913-6.579 8.913-12.326 0-5.243 2.125-9.988 5.558-13.422 3.434-3.434 8.18-5.559 13.422-5.559 1.395 0 2.754.15 4.063.436-3.612.787-6.839 2.602-9.359 5.123-3.434 3.434-5.558 8.179-5.558 13.422zm14.917-44.75c10.785.967 20.474 5.746 27.708 12.98 8.132 8.132 13.161 19.365 13.161 31.771 0 8.829-2.562 17.079-6.985 24.047-4.542 7.155-11.075 12.942-18.83 16.591-1.965.925-3.516 2.283-4.558 3.924-1.024 1.614-1.583 3.592-1.583 5.785v6.407c0 5.747-3.737 10.621-8.913 12.326 1.278.421 2.644.65 4.063.65 7.166 0 12.976-5.81 12.976-12.976v-6.407c0-2.193.559-4.171 1.583-5.785 1.041-1.641 2.593-2.999 4.558-3.924 7.755-3.65 14.289-9.436 18.831-16.591 4.423-6.968 6.985-15.217 6.985-24.047 0-12.406-5.03-23.639-13.161-31.771-8.132-8.131-19.365-13.161-31.771-13.161-1.37-.001-2.725.061-4.064.181zm4.063 132.271c7.166 0 12.976 5.809 12.976 12.976 0 7.166-5.81 12.976-12.976 12.976-1.419 0-2.785-.229-4.063-.65 5.176-1.705 8.913-6.579 8.913-12.326s-3.737-10.621-8.913-12.326c1.278-.422 2.644-.65 4.063-.65z" fill="#fd4755"></path></g></g></svg>