<!-- icon666.com - MILLIONS OF FREE VECTOR ICONS --><svg viewBox="0 0 64 64" xmlns="http://www.w3.org/2000/svg"><g id="Ikon"><g fill="#bddbff"><path d="m59.9 30.0712-14.0486-14.0482a3.985 3.985 0 0 1 -2.8283 2.8284l14.048 14.0486a2 2 0 1 0 2.8289-2.8288z"></path><path d="m18.1486 16.023-14.048 14.0482a2 2 0 1 0 2.8283 2.8288l14.048-14.0481a3.985 3.985 0 0 1 -2.8283-2.8289z"></path><path d="m18 15a3.9735 3.9735 0 0 1 1.38-3h-13.38a3 3 0 0 0 0 6h13.38a3.9735 3.9735 0 0 1 -1.38-3z"></path><path d="m39.38 12h-14.7595a3.9518 3.9518 0 0 1 0 6h14.7595a3.9518 3.9518 0 0 1 0-6z"></path><path d="m58 12h-13.3795a3.9518 3.9518 0 0 1 0 6h13.3795a3 3 0 0 0 0-6z"></path><path d="m41.1108 41a1 1 0 0 1 -.9945-1.1047l1.7895-17a1 1 0 0 1 .9942-.8953h3.9889a1 1 0 0 1 .9945 1.1047l-1.7311 16.4484a7.86 7.86 0 0 1 7.0259-2.4568l2.8218-19.0963h-48l3.7391 25.3041a2 2 0 0 0 1.9768 1.6959h30.2841a7.9521 7.9521 0 0 1 1.079-4zm-18.2216 0h-3.9892a1 1 0 0 1 -.9945-.8953l-1.79-17a1 1 0 0 1 .9953-1.1047h3.9892a1 1 0 0 1 .9945.8953l1.79 17a1 1 0 0 1 -.9953 1.1047zm12.1108-1a1 1 0 0 1 -1 1h-4a1 1 0 0 1 -1-1v-17a1 1 0 0 1 1-1h4a1 1 0 0 1 1 1z"></path></g><path d="m56.0038 44.0038a1 1 0 0 1 0 2h-8a1 1 0 0 1 0-2zm-20.0038-21.0238v17a2.0059 2.0059 0 0 1 -2 2h-4a2.0059 2.0059 0 0 1 -2-2v-17a2.0059 2.0059 0 0 1 2-2h4a2.0059 2.0059 0 0 1 2 2zm-2 0h-4v17h4zm20.92 9.14-.6213 4.1976c10.7474 2.8611 7.8944 19.0831-3.6915 17.574a8.7 8.7 0 0 1 -7.573-7.9116h-29.3142a2.9849 2.9849 0 0 1 -2.97-2.54l-1.67-11.32-1.46 1.46a2.9983 2.9983 0 0 1 -4.24-4.24l4.61-4.61-.85-5.75h-1.14a4 4 0 0 1 0-8h12.93a5.3888 5.3888 0 0 1 6.14 0h13.86a5.3888 5.3888 0 0 1 6.14 0h12.93a4 4 0 0 1 0 8h-1.14l-.85 5.75 4.61 4.61a2.9983 2.9983 0 0 1 -4.24 4.24zm-8.33-19.14a5.2141 5.2141 0 0 1 .35 2.68l1.32 1.32h9.74a2 2 0 0 0 0-4zm3.67 6 3.99 3.99.59-3.99zm-5.48.18 13.01 13.01a1.0008 1.0008 0 0 0 1.41-1.42l-13-13a4.7737 4.7737 0 0 1 -1.42 1.41zm8.38 11.2-4.56-4.56-1.192 11.3621a9.0458 9.0458 0 0 1 4.914-1.1437zm-6.38-6.38-1-1h-2.88l-1.79 17h3.3639a8.8255 8.8255 0 0 1 .7311-.9924zm-4.78-6a3 3 0 0 0 0-6 3 3 0 0 0 0 6zm-15.41-1h10.82a5.23 5.23 0 0 1 0-4h-10.82a5.23 5.23 0 0 1 0 4zm-4.59 1a3 3 0 0 0 0-6 3 3 0 0 0 0 6zm-6.26-1 1.32-1.32a5.2141 5.2141 0 0 1 .35-2.68h-11.41a2 2 0 0 0 0 4zm-6.58 2 .59 3.99 3.99-3.99zm10.06.18a4.7737 4.7737 0 0 1 -1.42-1.41l-13 13a1.0008 1.0008 0 0 0 1.41 1.42zm-1 3.82-1 1 1.68 16h3.99l-1.79-17zm-4.5 21h29.3462a9.7314 9.7314 0 0 1 .4438-2h-2.4a2.0193 2.0193 0 0 1 -1.99-2.21l1.79-17a1.9961 1.9961 0 0 1 1.99-1.79h.88l-1.09-1.09a5.0383 5.0383 0 0 1 -3.76-.91h-13.86a5.0323 5.0323 0 0 1 -3.76.91l-1.09 1.09h.88a1.9961 1.9961 0 0 1 1.99 1.79l1.79 17a2.0193 2.0193 0 0 1 -1.99 2.21h-3.99a1.9961 1.9961 0 0 1 -1.99-1.79l-1.51-14.39-4.56 4.56 1.89 12.78a.993.993 0 0 0 .99.84zm39.3633-5.8956c-9.2164-1.277-11.3307 12.23-2.1663 13.8313 9.2161 1.2769 11.3304-12.2305 2.1663-13.8313z" fill="#3d9ae2"></path></g></svg>